<svg xmlns="http://www.w3.org/2000/svg" viewBox="0 0 362.63 482.1"><defs><style>.cls-1{fill:#caffff;}.cls-2{fill:#f4e1db;}.cls-3,.cls-5{fill:#fff;}.cls-4{fill:#a09797;}.cls-5{opacity:0.33;}.cls-6,.cls-7{fill:#41d4da;}.cls-7{opacity:0.46;}.cls-8{fill:#0a192f;}.cls-9{fill:#202450;}</style></defs><g id="Layer_6" data-name="Layer 6"><path class="cls-1" d="M100.53,426.92s20.17,39.48,25.79,43.57,32.17,38.3,38.3,44.42,53.1,41.62,53.1,41.62,18,6.64,21.78,5.87,14-.51,19.33-3.06,23.52-19.53,23.52-19.53,10.95-14.43,10.44-17.49,5.36-16.85,8.17-19.92,13.27-11.74,17.36-13,25.79-1.27,25.79-1.27,15.32-5.37,19.4-8.43S377.66,457,377.66,457s2.72-10.18,6-15.81,10.38-15.87,12.85-19.71,11.65-28.31,11.65-28.31L418.4,365l3.83-35.49-3.32-14.81-1-11.74,4.34-1.28,5.88-8.68-1-6.38,3.31-9.45,3.83-8.43V250.15L424,238.4l.26-13,10-4.61,9.45,8.68,3.82,2,6.65-6.11,4.59-13.8h2.81s4.85-29.62-2.29-38.81-17.88-33.7-24.77-39.07-27.32-20.93-27.32-20.93l8.68-5.62S408.7,96.7,385,93.64s-37.79,0-37.79,0L350.49,88s-14-7.66-27.83-7.66-60.51,8.94-60.51,8.94l-.77-5.11s-36.51,2.17-41.1,6.19S178.83,111,178.83,111l-13.7,14.3v6.89l-13.28,9.45-8.17,13.27-9.19,39.83,4.6,2.56-7.41,18.64h7.66s-.77,17.61-1.53,25-1.92,19.15-1.92,19.15l-9.06,13-6.64,23.23s4.85,20.43,7.66,24S147,352.28,147,352.28l3.57,6.44s-3.06,22.15-4.85,23.94S139.6,399,139.6,399l-17.37,14-21.7,5.62Z" transform="translate(-100.53 -80.36)"/></g><g id="Layer_5" data-name="Layer 5"><path class="cls-2" d="M359.19,470.92l5.6-6.56,7.15-19.15,2.68-5.74,11.1-15.32,8.43-16,7.15-19.79,6.51-19.53,3.7-20.93.77-16.85L410,317.3l-.13-10.73,2.43-12.12,5.61-8.43,4.34-6.68-1.14-11.7-1.28-16.47-.77-5.11-.51-19-1.66-25.66-11.1-26.17-28.6-10L342.7,141.64H307.21l-39.57,11.62-28.09,2.17-22.72,17.48-11.11,26.81-26.89,51.71-20.34,6.89-6.83,7.48-6.45,1.58-5.49,4.6-6,7.4-2.55,8.81.64,8.17,1.79,9.07,4,14.22,5.75,9,5.1,8.17,6,8.3,8.3,11.49-2.81,24.25L152.74,404,140,418l-16,5.49-8.55,5.23,3.57,10L134,462.83l52.21,54.26,32,22.72s27.2-1.41,28.22-2,18.64-31.66,18.64-31.66l11.1-14.56,31.53-8.81,23.11-1.27,17.45-3.07,9.36-4.46,2-2.43" transform="translate(-100.53 -80.36)"/><path class="cls-3" d="M285.26,283.09s4,7.06,9.83,9.7,12,5.44,12,5.44h10.13l11.57-.42,3.11-4.3.29-7.57-.68-5.62s-18.89-5.15-19.32-5.23S294.36,277,294.36,277Z" transform="translate(-100.53 -80.36)"/><polygon class="cls-3" points="283.16 219.7 284.77 222.04 293.83 225.11 302.43 226.85 308.47 226.3 308.85 218.94 300.72 207.45 290.64 210.51 283.16 219.7"/><path class="cls-4" d="M124.7,425.13s12.77,26.21,20.6,30.64,30.47,30.46,34.21,33.19,11.81,8.87,11.81,8.87-10.62-15.68-10.62-17.21,28.77,27.23,36.6,31.32c0,0-17.87-25.54-19.24-28.94,0,0,19.24,21.11,30.64,23,0,0-12.08-19.41-17.53-31.15,0,0,9.36,13.62,19.92,15,0,0-25.71-47-27.07-58.38s-1.87-33.71-1.87-33.71,7.32,27.75,13.11,33.54,51.23,45.1,51.23,45.1L274,496.79l-15.49,22.12s-23,17.54-23.49,17.54-24.51-1-24.51-1l-47.32-45.11-46-54.3-1.74-9.53Z" transform="translate(-100.53 -80.36)"/><path class="cls-4" d="M314.49,418.53,346.28,435s12.63.68,15.19,0,9.83-4.34,9.83-4.34l2.42-6s-24.85,2.73-25.44,2.3-23.92-5.48-23.92-5.48l-9.87-2.91h0l1.15.9h0l-1.15-.9h0" transform="translate(-100.53 -80.36)"/><ellipse class="cls-3" cx="374.49" cy="339.74" rx="3.89" ry="8.12" transform="translate(-220.23 152.4) rotate(-30)"/><ellipse class="cls-3" cx="235.41" cy="282.53" rx="2.03" ry="4.21"/><path class="cls-3" d="M205.21,402.12s7.92,17.94,10.34,20.88,42.39,31.4,42.39,31.4,37.91,22.09,41.74,22.86,17.23,1.4,19.41,1.4,19.14-1,23.1-2.3,12.26-3.83,12.26-3.83-32.68,4.09-38.94,3.19-25.53-8-29-10.08-43-27.19-43-27.19l-21.7-14.17S216.06,421.08,205.21,402.12Z" transform="translate(-100.53 -80.36)"/><path class="cls-3" d="M148.91,270.45s-6.51,2.63-9,6.49-4.46,13.36-4.46,13.36l.44,8,.77,8.1L134,300.57s-1.6-11.8-.64-15.06,2.23-7.66,4.92-9.7,8.1-6.32,8.1-6.32Z" transform="translate(-100.53 -80.36)"/><path class="cls-5" d="M228.19,302l19.92,7.15,7-11.49s17.44,19,18.89,24.84-9,39.5-6.72,47.92S271.6,399,271.6,399s-47-27.58-47-28.6-6.9-55.14-6.9-55.14l1.54-19.92Z" transform="translate(-100.53 -80.36)"/><path class="cls-6" d="M370.43,332.71s-2.05,5,.37,8.39,5.59,5.45,6.67,5.56a11.19,11.19,0,0,1-3.58-.51c-.93-.51-5.19-6.45-5.19-6.45s-.42-4.79,0-5.64A3.7,3.7,0,0,1,370.43,332.71Z" transform="translate(-100.53 -80.36)"/><path class="cls-6" d="M333.38,362.89a4.09,4.09,0,0,1,1.83-3.92l-.93,2.41s-.39,3.26.46,4.91C334.74,366.29,334.06,366.7,333.38,362.89Z" transform="translate(-100.53 -80.36)"/><path class="cls-6" d="M164.62,379.17l-7.07,31.16s-13.78,9.52-15.32,10S156.7,417,156.7,417l6.51-3.58,2,5.15,4.77-28.3-4.26-15.49Z" transform="translate(-100.53 -80.36)"/><polygon class="cls-6" points="104.68 320.55 117.19 342.77 128.68 352.21 138.97 360.79 115.02 342.64 104.68 324.38 102.89 317.87 104.68 320.55"/><polygon class="cls-7" points="120.93 220.34 120.93 246.89 127.66 282.27 135.15 295.92 120.93 288.77 111.66 239.91 110.47 219.18 105.87 208.6 118.3 211.32 122.55 216 120.93 220.34"/></g><g id="Layer_2" data-name="Layer 2"><path class="cls-8" d="M315.64,419.43s14.17,6.12,17.36,7.14,12.64,6.13,21.32,6,14.55.13,17-1.91,4.08-4,4.72-7,.89-7.92,1.28-9.07,3.15-3.4,3.15-3.4l-9.79-.84s-8.94.22-9.32,0-19.91,1.44-20.3,1.44-16.08,4-16.47,4-6.12,1.66-6.12,1.66l-4,1.15Z" transform="translate(-100.53 -80.36)"/><path class="cls-9" d="M314.49,418.53s8.94-4.59,12.77-4.59,10.85-2.94,12.38-3.83,7.4-7.54,13.53-7.79S366,404.49,366,404.49l2.46.64s4.72-3.87,7.4-2.83,5.37,4.61,5.37,4.61,1.78,1.66,3.19,1.15,3.83-1.27,3.83-1.27l-6.51,3.54s-2.81,2.07-5.24,2.2a72.53,72.53,0,0,1-8.42-.64s-.13,1.66-2.81,2.68-8.94,1-10.6.52.39-1.28-6.13-.77-11.71.64-17.15,1.53S314.49,418.53,314.49,418.53Z" transform="translate(-100.53 -80.36)"/><path class="cls-8" d="M249.13,162l10.72,4.93L257,160.79s15.32-.34,19.57,1.53c0,0-.34-7-4.25-7.83s30.46,1,38.29,5.28c0,0-2.72-6.64-6.46-7.66s33.7-.51,43.57,2,26.21,18.21,26.21,18.21,24.68-.85,30.3,6.64,9.7,23.83,9.7,23.83l1.71,20.08,2,15.15v6.13a12.46,12.46,0,0,0-8,1l2.72.68s-12.08,6.13-16.17,9.37h5.62s-9.7,9.7-9.7,11.23c0,0,4.76-1.7,8.51-3.23l-1.71,3.23s6.81-2.89,10.9-2.89-1.53,3.23,1.53,2.89,8.85,1.7,8.85,1.7l-1.7,6.47,1.7,6.3-4.25,6.81a7.69,7.69,0,0,0-8.51-4.09c-6.3,1-14,3-16.66,6.43s-7,6.95-7.79,9.38a19.6,19.6,0,0,0-.83,3.06l2.68-2.61,8-8.3,4.73-1.09s-1.54,4.6-.2,7.09,1,5.1,3.9,5.74,6.44.32,7-.76-.45,2.87-.45,2.87-8.93,1.53-14.68-1-5.87-2.62-6.7-2.62l-1.79.39a23.64,23.64,0,0,0,5.75,3.13c3,1,10.53,2.8,14,2.8s4.34.51,4.34.51a13.94,13.94,0,0,0-.77,5.88c.26,3.44,2.81,10.47,2.94,13.91a100.4,100.4,0,0,1-.26,13.66c-.51,5.36-1.27,16.09-2.93,20.94s-4.47,17.23-5.75,20-4.34,14-6.63,17.36-5.75,15.07-8.43,19-12.13,17.75-14.55,22-4,13.15-6.26,17.49-5,12.64-12.13,15.45-25.15,7.53-34.21,7-18-.26-23.87-3.45-29.24-14.68-38.43-21.83S221.3,435,213.13,423a80,80,0,0,1-11-25.28l8.42,34.73s43.15,42.46,51.58,49.06-11.75,7.36-11.75,7.36L257.81,508l-31.15,10L230,531.26s-25.28-19.92-45.19-43.66c0,0,25,39.57,29.36,43.66s-74-57.58-94.72-99.07v-4.34S133,424,136.79,421.21s16.34-7.66,18.12-13,6.9-24.76,6.9-24.76l2.55-12.26s1.28-4.08,6.38,9.19c0,0,2.56-6.13,2-10.21,0,0-2,.76,5.61,14,0,0-.76-18.64,2.81-23.74h1.15s.13-.26.26,2.17l1.78-4.09.77-2s.26,1.28-5.49.13-8.3,1-13.4-2.3-5.75-2.94-8.43-6.89-8.42-9.45-9.57-13.28-5.37-7-6.64-10.47-4.6-11.62-4.73-12.38-3.7-9.83-3.82-12.39-2.43-15.23,3.31-22,9.58-10.2,14.17-9.56,16.86,5.11,18,6.51a5,5,0,0,0,1.92,1.66l-1.45-4-1.42-.48-15.26-5.14s-6.3-1.1-10,2.22-8.51,8.08-9,9.87-3.83,9-3,15.91S132.19,307.26,134,311s5.19,13.53,7.49,16.94,5.7,10.38,7.15,12.25,7.49,8.94,9.53,11.83.76,2.38.76,2.38l-1.7,17.28s-3.49,24.43-5.78,27.92c0,0-3.49,8.08-4.34,8.68s-8.35,8.51-16,11.4-22.81,7.83-23.32,9.11,9.1,14.64,9.1,14.64,12,19,15.66,23.06,36.34,41.28,36.34,41.28,34.13,29.36,39.58,32.59,22.81,19.58,39.32,12.43,28.93-16.85,32-24.17,11.57-25.36,16.17-31.32a150.92,150.92,0,0,1,12.42-13.45s10.34.3,11.87.17,19.92-1.79,25.41-3.7,14.68-5,18-11.23,7.27-17.11,8.3-19.28,1.4-8,4.46-11,10.22-13.66,10.22-13.66,6.38-11,8.17-14.94,6.51-20.42,8.42-23.74,6-18.51,6.77-20.94,2.3-14.42,2.93-20,1.15-17.62.39-19.66a60.62,60.62,0,0,1-2.43-8.81c-.25-1.91.26-10.59.26-10.59l.25-5.75,2.68-6,4.73,2.94-2.56-5.36,5.11,1.15-3.7-5.24,5.1-7,.77-6.13,4.85-5.49L425,266.62l4.09-.9s-2.68-8.93-4.09-10.46l2.81-.64s-.76-6-3.83-7.66a30.33,30.33,0,0,1-4.59-2.94l.38-6.89s.51-9.07,0-10.85a67.51,67.51,0,0,1-.9-7.92l3.45,1.15,1.66-8.68s4,2.17,4,4.47l4.08-8.43A18,18,0,0,1,441.38,219l1.92-5a9.67,9.67,0,0,1,4.08,7s4.85-11.61,5.75-19.53l3.7,3.32s1.53-3.83-6.38-11.87l3.32,1.78s-7.92-32.93-18.13-41.87-11.75-20.3-24.26-27.44c0,0-14.68-12.13-21.95-13.66,0,0,7.53-6,10.46-3.71,0,0-14.93-6.12-22.08-6.51s-47.87-2.29-47.87-2.29,5.36-5.62,7.78-5.75c0,0-12.38-5.87-42-1.53s-41.87,4.85-53,10.59c0,0,7.24-10,9.28-10,0,0-44.08,11.07-54.64,18.73s-21.1,16.85-21.1,16.85-1.88,7.83-1.54,11.23c0,0-8.17.34-11.06,2,0,0-1.7,1.88-6.3,7.32a39.31,39.31,0,0,0-6.12,9.19l-3.92,24.51-3.06,8.69,8.85,4.25a36.52,36.52,0,0,0-8.34,11.4l6.12-.34s-2.72,22.64-2.72,25l3.75-1.71-4.6,19.07,3.4-2.56-1.53,20,9,2.39,8.26,3.15,1.83.46s-1-2.8-2.81-3.83-2-4.21-2-4.21l4.21-2.93,4.72-.39,2.43,8.56s.77,11.61,7.53,12,17.87-17.24,17.87-17.24L196.66,251s7.15-15.83,14.17-20.17,17.62-11.61,18-15.32l.51-14.17s7.79,3.19,7.28,6.77-.9-18.26-.9-18.26l7.15,2.81s.9-19.79-1.66-23c0,0,7.79-1,10,2.56C251.17,172.28,250.4,162.91,249.13,162Z" transform="translate(-100.53 -80.36)"/><path class="cls-8" d="M282.35,275.81s18.1-6,26.65-5.87,13,2.93,13,2.93-26.3.11-31.79,4.6-5.1,3.19-5.1,3.19l-7.79,4.08,8.68-.63a64.11,64.11,0,0,1,12.51-5.75c6.26-1.91,15.83-1.42,15.83-1.42s-3.32,3.08-2.55,6.91,2.17,9.06,6.89,9.06,7-1.65,7.92-3.06a11.83,11.83,0,0,0,1.66-4.08v-4.35l2.81,2.05v5.74l-1.41,4.73s.38,3.31-5.74,3.7-14.56.76-19.73-1.28a126.26,126.26,0,0,1-12.57-6.25l-3.7-3.2s1.4,2.69,7.27,6.64a34.83,34.83,0,0,0,19.28,5.88c6.51,0,9.7.51,14-.64a18.26,18.26,0,0,0,6.26-2.68s2.11.89,2.14,2.55c0,.46-.22-10.68-.36-13.14-.76-7.41-4.29-8.93-6.89-12-2.75-3.26-14.42-4.85-20.81-4.72s-21.44,4.08-23,4.59A12.88,12.88,0,0,0,282.35,275.81Z" transform="translate(-100.53 -80.36)"/><path class="cls-8" d="M260.87,252.79l15.41,8.76L273,250.66l30.39.89-2.43-7.4s3.36,2.81,16.21,4.34,14.09,5.57,14.09,5.57l-.94-8.51s5.83,3,7.53,4.47,4.6-3.06,4.6-3.06,6.58,13.46,7.17,11.87c3.42-9.2,10.21-9.44,9-6.64l8.93-8.31-5.87.31-1.1-11.49-3.24,6.13s-6.85-3.92-21.06-9.11-15.31-4.29-29.19-4.21-26.3,3.36-29.79,4.72-4.47,1.37-9.57,6.13a78.19,78.19,0,0,1-10.39,8.09l4.09-.94-6.38,10.64Z" transform="translate(-100.53 -80.36)"/><path class="cls-8" d="M372.7,299.54s-.74,21.5,2,28.87a7.3,7.3,0,0,0,.69,1.4c3.57,5.45,15.14,20.25,15.14,24.51s-3.74,14.47-6.29,16.34,6.29-6.3,6.29-6.3a8.15,8.15,0,0,1-3.4,7.66,46.87,46.87,0,0,1-6.3,4.26s10-4.09,10.9-6.64,3.57-10.21,2.89-13.45-7-12.59-8.68-14.64-10-11.74-10.47-13S372.87,321.51,372.7,299.54Z" transform="translate(-100.53 -80.36)"/><path class="cls-8" d="M333,360.06s-1.53,13.41,6,14.81C339,374.87,327.26,375.77,333,360.06Z" transform="translate(-100.53 -80.36)"/><path class="cls-8" d="M346.28,373.34s4.46-6.12,9.32-5.87a17.25,17.25,0,0,1,10.08,4.08c1.92,1.54-4.47-1.91-8.42-1.15S346.28,373.34,346.28,373.34Z" transform="translate(-100.53 -80.36)"/><path class="cls-8" d="M372.61,376.28l7.84-2.49a15.77,15.77,0,0,0,3.56-3.13c2-2.23,4.27-5.62,4.27-5.62l-2.88,5.62L382,374.49l-4.85,1.79Z" transform="translate(-100.53 -80.36)"/><path class="cls-8" d="M166.53,287.94s-11.74-16.09-16.59-16-10,6.89-10.6,8.68-3.45,10.6-3.45,12.64,3.2,11.1,3.2,11.1l-1.66-10.72s2.55-8.81,4.72-11.87,5.74-3.32,8.55-2.17,12.64,7.27,12.64,7.27l4.09,4Z" transform="translate(-100.53 -80.36)"/><path class="cls-8" d="M142.91,307.21l5.37,7s.63,9.07,6.25,12.64,8.68,5.24,8.68,5.24-6.76,1.4-11.55-1.54-9.89-13.27-9.89-14.29-1-8.43-1-8.43V304.4Z" transform="translate(-100.53 -80.36)"/><path class="cls-8" d="M163.85,301.6a35.86,35.86,0,0,0,6.89-2.94v-2.3l4.6,8a28.54,28.54,0,0,0-1.15,5.37c-.76,4.59-2.55-.9-2.55-.9l-.77-4.47s-3.57-3.83-5.74-1.14a43.52,43.52,0,0,0-4.22,6.89Z" transform="translate(-100.53 -80.36)"/><path class="cls-8" d="M173.68,323.55s-4.34,2.3-5.55,4.09,0,7.79,0,7.79l.57,1.4-3.44-4.39s-2.43-5.95,2.17-7.35A35.17,35.17,0,0,1,173.68,323.55Z" transform="translate(-100.53 -80.36)"/><polygon class="cls-8" points="83.23 266.55 85.28 284.04 88.6 295.28 83.23 283.02 82.08 269.49 82.08 261.45 83.23 266.55"/></g><g id="Layer_4" data-name="Layer 4"><path class="cls-6" d="M178.83,152.28s-14.72,7.49-17.92,15.32a135.48,135.48,0,0,0-5.23,16l12.45-11.24-4.92,19.75,12.13-16Z" transform="translate(-100.53 -80.36)"/><path class="cls-6" d="M189.13,124s-2.13-4.08,18.64-12.59S234,101.21,234,101.21l-10.89,9.53s20.08-7.83,48-7.48,38.46,3.4,38.46,3.4-55.12,6.13-60.24,9.87c0,0,10.88-.68,15.31-.34s10.89.68,10.89.68-32.68,9.53-40.85,10.22-32.34,4.08-32.34,4.08,18,6.47,27.23,5.11-15.32,5.44-21.1,5.44H191.77l-5.9,1.71s3.17,6.8,7.26,8.85-11.92-4.77-11.92-4.77l-2.38-2S183.67,130.14,189.13,124Z" transform="translate(-100.53 -80.36)"/><path class="cls-6" d="M415.09,181.55l3.06,10.56,2.38,20.76,3.41-17.36,11.57,8.17v-9.19s8.85,5.79,9.87,10.21c0,0,4.77-15.32,0-26.89S418.15,139,415.09,135.6s-31.4-20.09-31.4-20.09,28,28.26,30.37,34.72,6.47,24.51,6.47,24.51-1.7-8.85-8.51-12.25-11.57-1.7-18.72-1-12.85,5.79-12.85,5.79,14.21,0,19.66,2S415.09,181.55,415.09,181.55Z" transform="translate(-100.53 -80.36)"/><path class="cls-6" d="M169.15,212.87,159.09,233l10.06-6.13s3.21,11.85,2.87,16.65,5.11-27.88,5.11-27.88l-3.45-14.3Z" transform="translate(-100.53 -80.36)"/><path class="cls-3" d="M315.51,418.23s20.68-3.66,22.13-3.83,16.42-.85,16.42-.85-1.18,1.11,2.09,1.28,8.83-.26,9.88-1.28a13.77,13.77,0,0,0,1.82-2.21,17.72,17.72,0,0,0,4.76.68c2.13-.08,4.69.58,5.84.09a14.18,14.18,0,0,1,2.59-.77,9.15,9.15,0,0,1-3.32,1.53c-1.44.17-9,.09-9.36-.17s-.76.94-3.06,1.87-7.24,1-8.68,1a13.82,13.82,0,0,1-3.66-.81H341.8Z" transform="translate(-100.53 -80.36)"/><ellipse class="cls-6" cx="213.79" cy="201.28" rx="2.09" ry="2.3"/><ellipse class="cls-6" cx="298.98" cy="214.98" rx="2.09" ry="2.3"/></g></svg>