<?xml version="1.0" encoding="UTF-8"?>
<svg width="802px" height="96px" viewBox="0 0 802 96" version="1.1" xmlns="http://www.w3.org/2000/svg" xmlns:xlink="http://www.w3.org/1999/xlink">
    <!-- Generator: Sketch 51.3 (57544) - http://www.bohemiancoding.com/sketch -->
    <title>logotype-dark</title>
    <desc>Created with Sketch.</desc>
    <defs></defs>
    <g stroke="none" stroke-width="1" fill="none" fill-rule="evenodd">
        <g transform="translate(-58.000000, -1185.000000)">
            <g transform="translate(50.000000, 1174.000000)">
                <g transform="translate(6.000000, 2.000000)">
                    <g>
                        <g transform="translate(2.421429, 9.685714)">
                            <path d="M54.0888718,0.195513789 L54.0888718,36.9492311 L76.0856621,75.0714378 L107.994204,93.6067004 C108.28111,93.1044197 108.240123,92.4116532 107.800267,91.6507129 L81.7448072,46.495573 L55.6893472,1.33943063 C55.2484917,0.576485218 54.6686817,0.195513789 54.0888718,0.195513789" fill="#9E1F63"></path>
                            <path d="M0.182740105,93.6064999 L32.0912817,75.0712373 L54.0890717,36.9490306 L54.0890717,0.195313278 C53.5082621,0.195313278 52.9284521,0.576284707 52.4885963,1.33923012 L26.4321366,46.4953725 L0.375676868,91.6505124 C-0.0631792923,92.4124552 -0.104165858,93.1042191 0.182740105,93.6064999" fill="#FF4724"></path>
                            <path d="M107.994104,93.6064999 L76.0855621,75.0712373 L32.0909818,75.0712373 L0.182440203,93.6064999 C0.471345511,94.1107858 1.09114237,94.4235834 1.96985436,94.4235834 L106.20669,94.4235834 C107.086401,94.4235834 107.705198,94.1107858 107.994104,93.6064999" fill="#662D91"></path>
                            <polygon fill="#FFFFFF" points="32.0912817 75.0710368 76.085862 75.0710368 54.0890717 36.9498326"></polygon>
                        </g>
                    </g>
                    <path d="M164.7463,52.3555 C160.7843,52.3555 157.2973,54.9695 154.4443,58.5365 L154.4443,77.8705 C156.8223,78.7415 158.5653,79.1375 162.0523,79.1375 C169.4213,79.1375 173.5413,74.7795 173.5413,65.0335 C173.5413,56.7925 169.8173,52.3555 164.7463,52.3555 M162.1313,85.1605 C156.4263,85.1605 152.3853,84.2885 147.3923,82.7835 L147.3923,28.5835 L154.4443,27.4735 L154.4443,51.3255 C156.9803,48.7095 160.6253,46.0955 165.7753,46.0955 C173.9373,46.0955 180.6733,52.1175 180.6733,64.7165 C180.6733,78.5035 173.0653,85.1605 162.1313,85.1605" fill="#353535"></path>
                    <path d="M209.592,65.5089 C195.646,66.8559 192.714,70.6589 192.714,74.5419 C192.714,77.6319 194.775,79.6139 198.34,79.6139 C202.46,79.6139 206.422,77.5529 209.592,74.3049 L209.592,65.5089 Z M210.939,84.6849 L210.147,79.6139 C207.136,82.7029 203.015,85.4769 196.834,85.4769 C190.02,85.4769 185.741,81.3569 185.741,74.9389 C185.741,65.5089 193.823,61.7839 209.592,60.1199 L209.592,58.5359 C209.592,53.7809 206.739,52.1169 202.381,52.1169 C197.785,52.1169 193.427,53.5439 189.307,55.3659 L188.356,49.2649 C192.872,47.4429 197.152,46.0959 203.015,46.0959 C212.207,46.0959 216.645,49.8199 216.645,58.2189 L216.645,84.6849 L210.939,84.6849 Z" fill="#353535"></path>
                    <path d="M239.0666,85.4767 C234.0746,85.4767 228.5286,83.7337 225.2796,81.9117 L226.3096,75.2547 C229.8756,77.7117 234.4706,79.6137 239.6216,79.6137 C244.4556,79.6137 247.3076,77.7907 247.3076,74.6217 C247.3076,71.1347 245.1686,69.8677 238.3536,68.2037 C229.4786,65.9847 225.9136,63.2897 225.9136,56.5547 C225.9136,50.5327 230.9846,46.0957 239.2256,46.0957 C243.9006,46.0957 248.0996,47.0457 251.6666,48.6307 L250.5566,55.2877 C247.2286,53.3847 243.0286,52.0387 239.0666,52.0387 C234.7886,52.0387 232.5696,53.7027 232.5696,56.3967 C232.5696,58.9317 234.4706,60.3587 240.4146,61.8637 C249.7636,64.2417 253.9636,66.9357 253.9636,74.1457 C253.9636,81.0397 248.8136,85.4767 239.0666,85.4767" fill="#353535"></path>
                    <path d="M261.568,84.6851 L268.62,84.6851 L268.62,46.8881 L261.568,46.8881 L261.568,84.6851 Z M265.133,39.2801 C262.677,39.2801 260.616,37.3001 260.616,34.8441 C260.616,32.3871 262.677,30.3271 265.133,30.3271 C267.59,30.3271 269.57,32.3871 269.57,34.8441 C269.57,37.3001 267.59,39.2801 265.133,39.2801 Z" fill="#353535"></path>
                    <path d="M294.133,85.4767 C283.99,85.4767 276.542,78.4247 276.542,65.8267 C276.542,52.9897 284.466,46.0957 294.609,46.0957 C300.076,46.0957 304.117,47.7587 306.653,49.5817 L305.623,56.4757 C302.374,53.8607 298.888,52.2757 294.529,52.2757 C288.031,52.2757 283.674,57.0307 283.674,65.7467 C283.674,74.9387 288.428,79.2957 294.767,79.2957 C298.57,79.2957 302.295,78.2667 306.019,75.0967 L307.049,81.5947 C303.563,84.2087 299.522,85.4767 294.133,85.4767" fill="#353535"></path>
                    <path d="M354.6672,65.5089 C340.7212,66.8559 337.7892,70.6589 337.7892,74.5419 C337.7892,77.6319 339.8502,79.6139 343.4152,79.6139 C347.5352,79.6139 351.4972,77.5529 354.6672,74.3049 L354.6672,65.5089 Z M356.0142,84.6849 L355.2222,79.6139 C352.2112,82.7029 348.0902,85.4769 341.9092,85.4769 C335.0952,85.4769 330.8162,81.3569 330.8162,74.9389 C330.8162,65.5089 338.8982,61.7839 354.6672,60.1199 L354.6672,58.5359 C354.6672,53.7809 351.8142,52.1169 347.4562,52.1169 C342.8602,52.1169 338.5022,53.5439 334.3822,55.3659 L333.4312,49.2649 C337.9472,47.4429 342.2272,46.0959 348.0902,46.0959 C357.2822,46.0959 361.7202,49.8199 361.7202,58.2189 L361.7202,84.6849 L356.0142,84.6849 Z" fill="#353535"></path>
                    <path d="M383.9045,85.3185 C377.2485,85.3185 372.8895,82.9415 372.8895,75.3345 L372.8895,52.8305 L367.1845,52.8305 L367.1845,46.8875 L372.8895,46.8875 L372.8895,34.2895 L379.7835,33.2585 L379.7835,46.8875 L387.9455,46.8875 L388.8955,52.8305 L379.7835,52.8305 L379.7835,74.0665 C379.7835,77.1575 381.0515,79.0585 385.0135,79.0585 C386.2815,79.0585 387.3905,78.9795 388.2615,78.8215 L389.2135,84.8425 C388.0245,85.0815 386.3605,85.3185 383.9045,85.3185" fill="#353535"></path>
                    <path d="M409.0207,85.3185 C402.3647,85.3185 398.0057,82.9415 398.0057,75.3345 L398.0057,52.8305 L392.3007,52.8305 L392.3007,46.8875 L398.0057,46.8875 L398.0057,34.2895 L404.8997,33.2585 L404.8997,46.8875 L413.0617,46.8875 L414.0117,52.8305 L404.8997,52.8305 L404.8997,74.0665 C404.8997,77.1575 406.1677,79.0585 410.1297,79.0585 C411.3977,79.0585 412.5067,78.9795 413.3777,78.8215 L414.3297,84.8425 C413.1407,85.0815 411.4767,85.3185 409.0207,85.3185" fill="#353535"></path>
                    <path d="M426.2131,61.2296 L444.4381,61.2296 C443.5671,55.1286 440.8721,51.6416 435.4041,51.6416 C431.0471,51.6416 427.3221,54.8116 426.2131,61.2296 M436.3561,85.4766 C426.5301,85.4766 418.8441,79.5346 418.8441,65.6666 C418.8441,53.5436 425.9761,46.0956 435.4841,46.0956 C446.4981,46.0956 451.5691,54.5746 451.5691,65.0336 L451.5691,66.5396 L425.8971,66.5396 C426.1341,75.3346 430.3331,79.4556 436.9101,79.4556 C442.3781,79.4556 446.3401,77.3156 450.4601,74.0666 L451.4901,80.4056 C447.4491,83.5756 442.6151,85.4766 436.3561,85.4766" fill="#353535"></path>
                    <path d="M482.7082,84.6847 L482.7082,58.9317 C482.7082,55.0487 481.0442,52.4347 476.9242,52.4347 C473.1992,52.4347 469.3952,54.8907 465.9882,58.5367 L465.9882,84.6847 L458.9372,84.6847 L458.9372,46.8877 L464.5622,46.8877 L465.4342,52.3557 C469.0002,49.1067 473.4372,46.0957 478.8252,46.0957 C485.9572,46.0957 489.7612,50.3737 489.7612,57.1887 L489.7612,84.6847 L482.7082,84.6847 Z" fill="#353535"></path>
                    <path d="M511.9455,85.3185 C505.2895,85.3185 500.9305,82.9415 500.9305,75.3345 L500.9305,52.8305 L495.2255,52.8305 L495.2255,46.8875 L500.9305,46.8875 L500.9305,34.2895 L507.8245,33.2585 L507.8245,46.8875 L515.9865,46.8875 L516.9365,52.8305 L507.8245,52.8305 L507.8245,74.0665 C507.8245,77.1575 509.0925,79.0585 513.0545,79.0585 C514.3225,79.0585 515.4315,78.9795 516.3025,78.8215 L517.2545,84.8425 C516.0655,85.0815 514.4015,85.3185 511.9455,85.3185" fill="#353535"></path>
                    <path d="M524.779,84.6851 L531.831,84.6851 L531.831,46.8881 L524.779,46.8881 L524.779,84.6851 Z M528.345,39.2801 C525.889,39.2801 523.828,37.3001 523.828,34.8441 C523.828,32.3871 525.889,30.3271 528.345,30.3271 C530.802,30.3271 532.782,32.3871 532.782,34.8441 C532.782,37.3001 530.802,39.2801 528.345,39.2801 Z" fill="#353535"></path>
                    <path d="M557.1076,51.9591 C550.2936,51.9591 546.8856,57.9011 546.8856,65.8261 C546.8856,73.5911 550.4516,79.6131 557.1076,79.6131 C564.0806,79.6131 567.5666,73.7501 567.5666,65.8261 C567.5666,58.0611 563.9216,51.9591 557.1076,51.9591 M557.1076,85.4771 C547.0446,85.4771 539.7536,78.2671 539.7536,65.8261 C539.7536,53.3851 547.0446,46.0961 557.1076,46.0961 C567.2506,46.0961 574.6986,53.3851 574.6986,65.8261 C574.6986,78.2671 567.2506,85.4771 557.1076,85.4771" fill="#353535"></path>
                    <path d="M605.8371,84.6847 L605.8371,58.9317 C605.8371,55.0487 604.1731,52.4347 600.0531,52.4347 C596.3281,52.4347 592.5241,54.8907 589.1171,58.5367 L589.1171,84.6847 L582.0661,84.6847 L582.0661,46.8877 L587.6911,46.8877 L588.5631,52.3557 C592.1291,49.1067 596.5661,46.0957 601.9541,46.0957 C609.0861,46.0957 612.8901,50.3737 612.8901,57.1887 L612.8901,84.6847 L605.8371,84.6847 Z" fill="#353535"></path>
                    <path d="M650.9191,85.3185 C644.2631,85.3185 639.9041,82.9415 639.9041,75.3345 L639.9041,52.8305 L634.1991,52.8305 L634.1991,46.8875 L639.9041,46.8875 L639.9041,34.2895 L646.7981,33.2585 L646.7981,46.8875 L654.9601,46.8875 L655.9101,52.8305 L646.7981,52.8305 L646.7981,74.0665 C646.7981,77.1575 648.0661,79.0585 652.0281,79.0585 C653.2961,79.0585 654.4051,78.9795 655.2761,78.8215 L656.2281,84.8425 C655.0391,85.0815 653.3751,85.3185 650.9191,85.3185" fill="#353535"></path>
                    <path d="M676.5119,51.9591 C669.6979,51.9591 666.2899,57.9011 666.2899,65.8261 C666.2899,73.5911 669.8559,79.6131 676.5119,79.6131 C683.4849,79.6131 686.9709,73.7501 686.9709,65.8261 C686.9709,58.0611 683.3259,51.9591 676.5119,51.9591 M676.5119,85.4771 C666.4489,85.4771 659.1579,78.2671 659.1579,65.8261 C659.1579,53.3851 666.4489,46.0961 676.5119,46.0961 C686.6549,46.0961 694.1029,53.3851 694.1029,65.8261 C694.1029,78.2671 686.6549,85.4771 676.5119,85.4771" fill="#353535"></path>
                    <polygon fill="#353535" points="725.3195 85.2394 708.5205 64.8754 708.5205 84.6844 701.4685 84.6844 701.4685 28.5834 708.5205 27.4734 708.5205 62.7354 723.1795 46.8874 731.6585 46.8874 715.7315 63.6074 733.0065 84.0514"></polygon>
                    <path d="M740.4514,61.2296 L758.6764,61.2296 C757.8054,55.1286 755.1104,51.6416 749.6424,51.6416 C745.2854,51.6416 741.5604,54.8116 740.4514,61.2296 M750.5944,85.4766 C740.7684,85.4766 733.0824,79.5346 733.0824,65.6666 C733.0824,53.5436 740.2144,46.0956 749.7224,46.0956 C760.7364,46.0956 765.8074,54.5746 765.8074,65.0336 L765.8074,66.5396 L740.1354,66.5396 C740.3724,75.3346 744.5714,79.4556 751.1484,79.4556 C756.6164,79.4556 760.5784,77.3156 764.6984,74.0666 L765.7284,80.4056 C761.6874,83.5756 756.8534,85.4766 750.5944,85.4766" fill="#353535"></path>
                    <path d="M796.9465,84.6847 L796.9465,58.9317 C796.9465,55.0487 795.2825,52.4347 791.1625,52.4347 C787.4375,52.4347 783.6335,54.8907 780.2265,58.5367 L780.2265,84.6847 L773.1755,84.6847 L773.1755,46.8877 L778.8005,46.8877 L779.6725,52.3557 C783.2385,49.1067 787.6755,46.0957 793.0635,46.0957 C800.1955,46.0957 803.9995,50.3737 803.9995,57.1887 L803.9995,84.6847 L796.9465,84.6847 Z" fill="#353535"></path>
                </g>
            </g>
        </g>
    </g>
</svg>